name analog
datacolumns 19
datarows 28
range 0.0 0.0135
endheader
time	ground_force_vx	ground_force_vy	ground_force_vz	ground_force_px	ground_force_py	ground_force_pz	l_ground_force_vx	l_ground_force_vy	l_ground_force_vz	l_ground_force_px	l_ground_force_py	l_ground_force_pz	ground_torque_x	ground_torque_y	ground_torque_z	l_ground_torque_x	l_ground_torque_y	l_ground_torque_z
0.0	-0.0	-0.0	-0.0	-1.9255738258361816	34.85684967041016	-339.666748046875	2.572612762451172	-34.62862014770508	-445.9261474609375	-0.0	-0.0	-0.0	-0.0	-0.0	-0.0	136290.265625	13542.9140625	-2454.58935546875
0.0005	-0.0	-0.0	-0.0	-2.311466932296753	34.70878601074219	-338.818603515625	2.269655227661133	-34.6520881652832	-444.99700927734375	-0.0	-0.0	-0.0	-0.0	-0.0	-0.0	136258.625	13491.9228515625	-2444.6748046875
0.001	-0.0	-0.0	-0.0	-2.386525630950928	34.798526763916016	-340.14306640625	2.2246408462524414	-34.84353256225586	-443.6266479492188	-0.0	-0.0	-0.0	-0.0	-0.0	-0.0	136289.5625	13489.1298828125	-2368.066162109375
0.0015	-0.0	-0.0	-0.0	-2.2078661918640137	34.41921615600586	-339.3469543457031	2.2915616035461426	-34.643985748291016	-444.1486511230469	-0.0	-0.0	-0.0	-0.0	-0.0	-0.0	136059.421875	13532.1435546875	-2427.283203125
0.002	-0.0	-0.0	-0.0	-1.9254329204559328	34.35204315185547	-340.9059753417969	2.20292592048645	-34.85785675048828	-444.033935546875	-0.0	-0.0	-0.0	-0.0	-0.0	-0.0	135812.4375	13628.6943359375	-2523.766845703125
0.0025	-0.0	-0.0	-0.0	-1.902937889099121	34.656982421875	-341.37762451171875	2.03296446800232	-34.688350677490234	-442.8697204589844	-0.0	-0.0	-0.0	-0.0	-0.0	-0.0	136044.359375	13652.990234375	-2469.480224609375
0.003	-0.0	-0.0	-0.0	-1.9558453559875488	34.396446228027344	-342.0569763183594	2.018063306808472	-34.496944427490234	-443.0452880859375	-0.0	-0.0	-0.0	-0.0	-0.0	-0.0	135797.203125	13463.41015625	-2494.186279296875
0.0035	-0.0	-0.0	-0.0	-1.732301115989685	34.93260192871094	-340.34979248046875	1.9516372680664065	-34.386287689208984	-443.39202880859375	-0.0	-0.0	-0.0	-0.0	-0.0	-0.0	135516.28125	13575.865234375	-2612.88671875
0.004	-0.0	-0.0	-0.0	-1.9025386571884155	34.715362548828125	-343.0278625488281	1.995408058166504	-34.533782958984375	-442.3751220703125	-0.0	-0.0	-0.0	-0.0	-0.0	-0.0	135716.734375	13558.875	-2508.889404296875
0.0045000000000000005	-0.0	-0.0	-0.0	-2.0289618968963623	34.71513748168945	-343.0856628417969	1.9371219873428345	-34.357139587402344	-441.8481750488281	-0.0	-0.0	-0.0	-0.0	-0.0	-0.0	135447.46875	13506.9384765625	-2681.96630859375
0.005	-0.0	-0.0	-0.0	-2.14105224609375	34.94493865966797	-342.6755676269531	2.0692286491394043	-34.4228630065918	-439.9067077636719	-0.0	-0.0	-0.0	-0.0	-0.0	-0.0	135279.25	13722.1123046875	-2499.051025390625
0.0055	-0.0	-0.0	-0.0	-1.9626312255859373	34.939117431640625	-342.1522521972656	2.2033843994140625	-34.65313720703125	-442.1722106933594	-0.0	-0.0	-0.0	-0.0	-0.0	-0.0	135436.3125	13754.4755859375	-2503.824462890625
0.006	-0.0	-0.0	-0.0	-2.0946736335754395	34.60576629638672	-342.37969970703125	2.2120394706726074	-34.217533111572266	-442.3525390625	-0.0	-0.0	-0.0	-0.0	-0.0	-0.0	135220.59375	13633.0537109375	-2511.3369140625
0.006500000000000001	-0.0	-0.0	-0.0	-2.1126484870910645	35.004966735839844	-342.75323486328125	2.1892993450164795	-34.445457458496094	-441.6423034667969	-0.0	-0.0	-0.0	-0.0	-0.0	-0.0	134940.984375	13569.7607421875	-2481.75927734375
0.007	-0.0	-0.0	-0.0	-2.080134630203247	34.662498474121094	-343.0863037109375	2.2833950519561768	-34.26881408691406	-439.9660949707031	-0.0	-0.0	-0.0	-0.0	-0.0	-0.0	135006.609375	13390.775390625	-2442.509521484375
0.0075	-0.0	-0.0	-0.0	-1.9626312255859373	34.83592987060547	-342.7332763671875	2.315573215484619	-34.52472686767578	-441.1253356933594	-0.0	-0.0	-0.0	-0.0	-0.0	-0.0	134879.03125	13653.41015625	-2523.849365234375
0.008	-0.0	-0.0	-0.0	-1.8122014999389648	34.49346923828125	-343.4952087402344	2.091718435287476	-34.115379333496094	-439.7288513183594	-0.0	-0.0	-0.0	-0.0	-0.0	-0.0	134626.046875	13481.421875	-2459.909912109375
0.0085	-0.0	-0.0	-0.0	-2.051841735839844	34.99064636230469	-342.1210632324219	2.241174936294556	-34.254913330078125	-439.5819091796875	-0.0	-0.0	-0.0	-0.0	-0.0	-0.0	134543.34375	13575.337890625	-2519.209716796875
0.009000000000000001	-0.0	-0.0	-0.0	-1.9764962196350095	34.826202392578125	-343.7538757324219	2.292580366134644	-33.9484977722168	-438.9761047363281	-0.0	-0.0	-0.0	-0.0	-0.0	-0.0	134599.125	13360.6640625	-2440.8798828125
0.0095	-0.0	-0.0	-0.0	-2.079420804977417	34.82243728637695	-344.24127197265625	2.0777909755706787	-34.18049621582031	-438.4641418457031	-0.0	-0.0	-0.0	-0.0	-0.0	-0.0	134462.09375	13565.833984375	-2486.462890625
0.01	-0.0	-0.0	-0.0	-2.113623857498169	34.5208740234375	-344.28271484375	1.8116960525512693	-34.11579895019531	-438.3327941894531	-0.0	-0.0	-0.0	-0.0	-0.0	-0.0	134583.0625	13707.4716796875	-2613.214599609375
0.0105	-0.0	-0.0	-0.0	-2.103279590606689	34.688602447509766	-344.7704772949219	2.241572618484497	-34.129512786865234	-438.81549072265625	-0.0	-0.0	-0.0	-0.0	-0.0	-0.0	134327.53125	13746.9736328125	-2537.681396484375
0.011	-0.0	-0.0	-0.0	-2.127462387084961	34.79863357543945	-344.4042358398437	2.0506367683410645	-34.23143768310547	-437.25823974609375	-0.0	-0.0	-0.0	-0.0	-0.0	-0.0	134078.171875	13613.0029296875	-2507.012939453125
0.0115	-0.0	-0.0	-0.0	-2.470865249633789	34.86349105834961	-345.31365966796875	2.142610549926758	-34.10260391235352	-436.9778442382813	-0.0	-0.0	-0.0	-0.0	-0.0	-0.0	133956.65625	13642.611328125	-2558.24560546875
0.012	-0.0	-0.0	-0.0	-2.270639419555664	35.07704162597656	-344.1571350097656	2.0268516540527344	-33.875221252441406	-436.1966247558594	-0.0	-0.0	-0.0	-0.0	-0.0	-0.0	134019.625	13785.8486328125	-2643.712890625
0.0125	-0.0	-0.0	-0.0	-2.3841538429260254	34.9792366027832	-344.4034118652344	1.6478601694107056	-34.1296501159668	-437.0953063964844	-0.0	-0.0	-0.0	-0.0	-0.0	-0.0	133798.296875	13821.5263671875	-2554.1162109375
0.013000000000000001	-0.0	-0.0	-0.0	-2.091766119003296	34.83866500854492	-346.1163330078125	1.8629264831542969	-33.990562438964844	-435.9945983886719	-0.0	-0.0	-0.0	-0.0	-0.0	-0.0	133761.78125	13709.7109375	-2588.080078125
0.0135	-0.0	-0.0	-0.0	-2.49967360496521	35.180030822753906	-346.0639038085937	1.8252167701721191	-33.904449462890625	-436.5441284179688	-0.0	-0.0	-0.0	-0.0	-0.0	-0.0	133569.28125	13690.3330078125	-2630.35888671875
